<svg xmlns="http://www.w3.org/2000/svg" width="0" height="0" style="display:none">
<!-- Barevne klubove znacky, ne odznaky. Zadna ochranna znamka se
     nereprodukuje: jen klubove barvy, vzor dresu a zkratka z FPL. -->
<symbol id="club-ARS" viewBox="0 0 32 32"><rect width="32" height="32" rx="7" fill="#EF0107"/><text x="16" y="21" text-anchor="middle" fill="#FFFFFF" font-family="Space Mono,ui-monospace,monospace" font-size="10.5" font-weight="700" letter-spacing=".2">ARS</text></symbol>
<symbol id="club-AVL" viewBox="0 0 32 32"><rect width="32" height="32" rx="7" fill="#670E36"/><rect x="16" y="0" width="16" height="32" fill="#95BFE5" opacity=".92"/><text x="16" y="21" text-anchor="middle" fill="#95BFE5" font-family="Space Mono,ui-monospace,monospace" font-size="10.5" font-weight="700" letter-spacing=".2">AVL</text></symbol>
<symbol id="club-BOU" viewBox="0 0 32 32"><rect width="32" height="32" rx="7" fill="#DA291C"/><g fill="#FFFFFF" opacity=".92"><rect x="9" y="0" width="6" height="32"/><rect x="23" y="0" width="6" height="32"/></g><text x="16" y="21" text-anchor="middle" fill="#FFFFFF" font-family="Space Mono,ui-monospace,monospace" font-size="10.5" font-weight="700" letter-spacing=".2">BOU</text></symbol>
<symbol id="club-BRE" viewBox="0 0 32 32"><rect width="32" height="32" rx="7" fill="#E30613"/><g fill="#FFFFFF" opacity=".92"><rect x="9" y="0" width="6" height="32"/><rect x="23" y="0" width="6" height="32"/></g><text x="16" y="21" text-anchor="middle" fill="#FFFFFF" font-family="Space Mono,ui-monospace,monospace" font-size="10.5" font-weight="700" letter-spacing=".2">BRE</text></symbol>
<symbol id="club-BHA" viewBox="0 0 32 32"><rect width="32" height="32" rx="7" fill="#0057B8"/><g fill="#FFFFFF" opacity=".92"><rect x="9" y="0" width="6" height="32"/><rect x="23" y="0" width="6" height="32"/></g><text x="16" y="21" text-anchor="middle" fill="#FFFFFF" font-family="Space Mono,ui-monospace,monospace" font-size="10.5" font-weight="700" letter-spacing=".2">BHA</text></symbol>
<symbol id="club-CHE" viewBox="0 0 32 32"><rect width="32" height="32" rx="7" fill="#034694"/><text x="16" y="21" text-anchor="middle" fill="#FFFFFF" font-family="Space Mono,ui-monospace,monospace" font-size="10.5" font-weight="700" letter-spacing=".2">CHE</text></symbol>
<symbol id="club-COV" viewBox="0 0 32 32"><rect width="32" height="32" rx="7" fill="#5FBEEB"/><text x="16" y="21" text-anchor="middle" fill="#0B2545" font-family="Space Mono,ui-monospace,monospace" font-size="10.5" font-weight="700" letter-spacing=".2">COV</text></symbol>
<symbol id="club-CRY" viewBox="0 0 32 32"><rect width="32" height="32" rx="7" fill="#1B458F"/><path d="M0 32 L32 0 L32 9 L9 32 Z" fill="#FFFFFF" opacity=".9"/><text x="16" y="21" text-anchor="middle" fill="#FFFFFF" font-family="Space Mono,ui-monospace,monospace" font-size="10.5" font-weight="700" letter-spacing=".2">CRY</text></symbol>
<symbol id="club-EVE" viewBox="0 0 32 32"><rect width="32" height="32" rx="7" fill="#003399"/><text x="16" y="21" text-anchor="middle" fill="#FFFFFF" font-family="Space Mono,ui-monospace,monospace" font-size="10.5" font-weight="700" letter-spacing=".2">EVE</text></symbol>
<symbol id="club-FUL" viewBox="0 0 32 32"><rect width="32" height="32" rx="7" fill="#E9E9EC"/><text x="16" y="21" text-anchor="middle" fill="#111111" font-family="Space Mono,ui-monospace,monospace" font-size="10.5" font-weight="700" letter-spacing=".2">FUL</text></symbol>
<symbol id="club-HUL" viewBox="0 0 32 32"><rect width="32" height="32" rx="7" fill="#F5971D"/><g fill="#111111" opacity=".92"><rect x="9" y="0" width="6" height="32"/><rect x="23" y="0" width="6" height="32"/></g><text x="16" y="21" text-anchor="middle" fill="#111111" font-family="Space Mono,ui-monospace,monospace" font-size="10.5" font-weight="700" letter-spacing=".2">HUL</text></symbol>
<symbol id="club-IPS" viewBox="0 0 32 32"><rect width="32" height="32" rx="7" fill="#3A64A3"/><text x="16" y="21" text-anchor="middle" fill="#FFFFFF" font-family="Space Mono,ui-monospace,monospace" font-size="10.5" font-weight="700" letter-spacing=".2">IPS</text></symbol>
<symbol id="club-LEE" viewBox="0 0 32 32"><rect width="32" height="32" rx="7" fill="#FFCD00"/><text x="16" y="21" text-anchor="middle" fill="#1D428A" font-family="Space Mono,ui-monospace,monospace" font-size="10.5" font-weight="700" letter-spacing=".2">LEE</text></symbol>
<symbol id="club-LIV" viewBox="0 0 32 32"><rect width="32" height="32" rx="7" fill="#C8102E"/><text x="16" y="21" text-anchor="middle" fill="#FFFFFF" font-family="Space Mono,ui-monospace,monospace" font-size="10.5" font-weight="700" letter-spacing=".2">LIV</text></symbol>
<symbol id="club-MCI" viewBox="0 0 32 32"><rect width="32" height="32" rx="7" fill="#6CABDD"/><text x="16" y="21" text-anchor="middle" fill="#12264F" font-family="Space Mono,ui-monospace,monospace" font-size="10.5" font-weight="700" letter-spacing=".2">MCI</text></symbol>
<symbol id="club-MUN" viewBox="0 0 32 32"><rect width="32" height="32" rx="7" fill="#DA291C"/><text x="16" y="21" text-anchor="middle" fill="#FBE122" font-family="Space Mono,ui-monospace,monospace" font-size="10.5" font-weight="700" letter-spacing=".2">MUN</text></symbol>
<symbol id="club-NEW" viewBox="0 0 32 32"><rect width="32" height="32" rx="7" fill="#241F20"/><g fill="#FFFFFF" opacity=".92"><rect x="9" y="0" width="6" height="32"/><rect x="23" y="0" width="6" height="32"/></g><text x="16" y="21" text-anchor="middle" fill="#FFFFFF" font-family="Space Mono,ui-monospace,monospace" font-size="10.5" font-weight="700" letter-spacing=".2">NEW</text></symbol>
<symbol id="club-NFO" viewBox="0 0 32 32"><rect width="32" height="32" rx="7" fill="#DD0000"/><text x="16" y="21" text-anchor="middle" fill="#FFFFFF" font-family="Space Mono,ui-monospace,monospace" font-size="10.5" font-weight="700" letter-spacing=".2">NFO</text></symbol>
<symbol id="club-TOT" viewBox="0 0 32 32"><rect width="32" height="32" rx="7" fill="#132257"/><rect x="16" y="0" width="16" height="32" fill="#FFFFFF" opacity=".92"/><text x="16" y="21" text-anchor="middle" fill="#FFFFFF" font-family="Space Mono,ui-monospace,monospace" font-size="10.5" font-weight="700" letter-spacing=".2">TOT</text></symbol>
<symbol id="club-SUN" viewBox="0 0 32 32"><rect width="32" height="32" rx="7" fill="#EB172B"/><g fill="#FFFFFF" opacity=".92"><rect x="9" y="0" width="6" height="32"/><rect x="23" y="0" width="6" height="32"/></g><text x="16" y="21" text-anchor="middle" fill="#FFFFFF" font-family="Space Mono,ui-monospace,monospace" font-size="10.5" font-weight="700" letter-spacing=".2">SUN</text></symbol>
</svg>
